<svg width="260" height="204" viewBox="0 0 260 204" fill="none" xmlns="http://www.w3.org/2000/svg">
<path fill-rule="evenodd" clip-rule="evenodd" d="M237.391 204C243.388 204 249.138 201.612 253.378 197.361C257.618 193.11 260 187.345 260 181.333V22.6667C260 16.6551 257.618 10.8897 253.378 6.63891C249.138 2.38809 243.388 0 237.391 0H22.6087C16.6125 0 10.8619 2.38809 6.62193 6.63891C2.38198 10.8897 0 16.6551 0 22.6667V181.333C0 187.345 2.38198 193.11 6.62193 197.361C10.8619 201.612 16.6125 204 22.6087 204H237.391ZM113.043 22.6667H90.2652V113.333H78.9609V181.333H124.348V113.333H113.043V22.6667ZM192.343 181.333H237.391V22.6667H203.648V113.333H192.343V181.333ZM181.039 113.333H169.735V22.6667H146.957V113.333H135.652V181.333H181.039V113.333ZM67.6565 181.333V113.333H56.3522V22.6667H22.6087V181.333H67.6565Z" fill="#FF96D3"/>
</svg>
